{
	"asset":{
		"generator":"Khronos glTF Blender I/O v4.2.57",
		"version":"2.0"
	},
	"scene":0,
	"scenes":[
		{
			"name":"Scene",
			"nodes":[
				0,
				1,
				2,
				3,
				4,
				5
			]
		}
	],
	"nodes":[
		{
			"mesh":0,
			"name":"backpack",
			"scale":[
				0.0010000000474974513,
				0.0010000000474974513,
				0.0010000000474974513
			]
		},
		{
			"mesh":1,
			"name":"front_hook",
			"scale":[
				0.0010000000474974513,
				0.0010000000474974513,
				0.0010000000474974513
			]
		},
		{
			"mesh":2,
			"name":"pins",
			"scale":[
				0.0010000000474974513,
				0.0010000000474974513,
				0.0010000000474974513
			]
		},
		{
			"mesh":3,
			"name":"front_buckle",
			"scale":[
				0.0010000000474974513,
				0.0010000000474974513,
				0.0010000000474974513
			]
		},
		{
			"mesh":4,
			"name":"zip",
			"scale":[
				0.0010000000474974513,
				0.0010000000474974513,
				0.0010000000474974513
			]
		},
		{
			"mesh":5,
			"name":"back_buckle",
			"scale":[
				0.0010000000474974513,
				0.0010000000474974513,
				0.0010000000474974513
			]
		}
	],
	"meshes":[
		{
			"name":"Mesh",
			"primitives":[
				{
					"attributes":{
						"POSITION":0,
						"NORMAL":1,
						"TEXCOORD_0":2
					},
					"indices":3
				}
			]
		},
		{
			"name":"Mesh.001",
			"primitives":[
				{
					"attributes":{
						"POSITION":4,
						"NORMAL":5,
						"TEXCOORD_0":6
					},
					"indices":7
				}
			]
		},
		{
			"name":"Mesh.002",
			"primitives":[
				{
					"attributes":{
						"POSITION":8,
						"NORMAL":9,
						"TEXCOORD_0":10
					},
					"indices":11
				}
			]
		},
		{
			"name":"Mesh.003",
			"primitives":[
				{
					"attributes":{
						"POSITION":12,
						"NORMAL":13,
						"TEXCOORD_0":14
					},
					"indices":15
				}
			]
		},
		{
			"name":"Mesh.004",
			"primitives":[
				{
					"attributes":{
						"POSITION":16,
						"NORMAL":17,
						"TEXCOORD_0":18
					},
					"indices":19
				}
			]
		},
		{
			"name":"Mesh.005",
			"primitives":[
				{
					"attributes":{
						"POSITION":20,
						"NORMAL":21,
						"TEXCOORD_0":22
					},
					"indices":23
				}
			]
		}
	],
	"accessors":[
		{
			"bufferView":0,
			"componentType":5126,
			"count":43141,
			"max":[
				194.5003662109375,
				476.3934326171875,
				207.71348571777344
			],
			"min":[
				-194.5003662109375,
				0.18514490127563477,
				-207.71348571777344
			],
			"type":"VEC3"
		},
		{
			"bufferView":1,
			"componentType":5126,
			"count":43141,
			"type":"VEC3"
		},
		{
			"bufferView":2,
			"componentType":5126,
			"count":43141,
			"type":"VEC2"
		},
		{
			"bufferView":3,
			"componentType":5123,
			"count":233370,
			"type":"SCALAR"
		},
		{
			"bufferView":4,
			"componentType":5126,
			"count":1178,
			"max":[
				33.84018325805664,
				301.81890869140625,
				164.344482421875
			],
			"min":[
				-18.513084411621094,
				239.87307739257812,
				116.48829650878906
			],
			"type":"VEC3"
		},
		{
			"bufferView":5,
			"componentType":5126,
			"count":1178,
			"type":"VEC3"
		},
		{
			"bufferView":6,
			"componentType":5126,
			"count":1178,
			"type":"VEC2"
		},
		{
			"bufferView":7,
			"componentType":5123,
			"count":5616,
			"type":"SCALAR"
		},
		{
			"bufferView":8,
			"componentType":5126,
			"count":146,
			"max":[
				68.54300689697266,
				146.4580841064453,
				181.59814453125
			],
			"min":[
				49.99267578125,
				141.12893676757812,
				178.1072998046875
			],
			"type":"VEC3"
		},
		{
			"bufferView":9,
			"componentType":5126,
			"count":146,
			"type":"VEC3"
		},
		{
			"bufferView":10,
			"componentType":5126,
			"count":146,
			"type":"VEC2"
		},
		{
			"bufferView":11,
			"componentType":5123,
			"count":768,
			"type":"SCALAR"
		},
		{
			"bufferView":12,
			"componentType":5126,
			"count":726,
			"max":[
				116.98572540283203,
				106.04253387451172,
				186.11766052246094
			],
			"min":[
				-99.80074310302734,
				68.92617797851562,
				151.476806640625
			],
			"type":"VEC3"
		},
		{
			"bufferView":13,
			"componentType":5126,
			"count":726,
			"type":"VEC3"
		},
		{
			"bufferView":14,
			"componentType":5126,
			"count":726,
			"type":"VEC2"
		},
		{
			"bufferView":15,
			"componentType":5123,
			"count":3648,
			"type":"SCALAR"
		},
		{
			"bufferView":16,
			"componentType":5126,
			"count":2084,
			"max":[
				153.5858154296875,
				379.42315673828125,
				-11.107090950012207
			],
			"min":[
				138.1361846923828,
				362.41424560546875,
				-19.852008819580078
			],
			"type":"VEC3"
		},
		{
			"bufferView":17,
			"componentType":5126,
			"count":2084,
			"type":"VEC3"
		},
		{
			"bufferView":18,
			"componentType":5126,
			"count":2084,
			"type":"VEC2"
		},
		{
			"bufferView":19,
			"componentType":5123,
			"count":6630,
			"type":"SCALAR"
		},
		{
			"bufferView":20,
			"componentType":5126,
			"count":1496,
			"max":[
				182.80905151367188,
				102.97265625,
				-42.738914489746094
			],
			"min":[
				-185.35064697265625,
				26.666099548339844,
				-103.87211608886719
			],
			"type":"VEC3"
		},
		{
			"bufferView":21,
			"componentType":5126,
			"count":1496,
			"type":"VEC3"
		},
		{
			"bufferView":22,
			"componentType":5126,
			"count":1496,
			"type":"VEC2"
		},
		{
			"bufferView":23,
			"componentType":5123,
			"count":7488,
			"type":"SCALAR"
		}
	],
	"bufferViews":[
		{
			"buffer":0,
			"byteLength":517692,
			"byteOffset":0,
			"target":34962
		},
		{
			"buffer":0,
			"byteLength":517692,
			"byteOffset":517692,
			"target":34962
		},
		{
			"buffer":0,
			"byteLength":345128,
			"byteOffset":1035384,
			"target":34962
		},
		{
			"buffer":0,
			"byteLength":466740,
			"byteOffset":1380512,
			"target":34963
		},
		{
			"buffer":0,
			"byteLength":14136,
			"byteOffset":1847252,
			"target":34962
		},
		{
			"buffer":0,
			"byteLength":14136,
			"byteOffset":1861388,
			"target":34962
		},
		{
			"buffer":0,
			"byteLength":9424,
			"byteOffset":1875524,
			"target":34962
		},
		{
			"buffer":0,
			"byteLength":11232,
			"byteOffset":1884948,
			"target":34963
		},
		{
			"buffer":0,
			"byteLength":1752,
			"byteOffset":1896180,
			"target":34962
		},
		{
			"buffer":0,
			"byteLength":1752,
			"byteOffset":1897932,
			"target":34962
		},
		{
			"buffer":0,
			"byteLength":1168,
			"byteOffset":1899684,
			"target":34962
		},
		{
			"buffer":0,
			"byteLength":1536,
			"byteOffset":1900852,
			"target":34963
		},
		{
			"buffer":0,
			"byteLength":8712,
			"byteOffset":1902388,
			"target":34962
		},
		{
			"buffer":0,
			"byteLength":8712,
			"byteOffset":1911100,
			"target":34962
		},
		{
			"buffer":0,
			"byteLength":5808,
			"byteOffset":1919812,
			"target":34962
		},
		{
			"buffer":0,
			"byteLength":7296,
			"byteOffset":1925620,
			"target":34963
		},
		{
			"buffer":0,
			"byteLength":25008,
			"byteOffset":1932916,
			"target":34962
		},
		{
			"buffer":0,
			"byteLength":25008,
			"byteOffset":1957924,
			"target":34962
		},
		{
			"buffer":0,
			"byteLength":16672,
			"byteOffset":1982932,
			"target":34962
		},
		{
			"buffer":0,
			"byteLength":13260,
			"byteOffset":1999604,
			"target":34963
		},
		{
			"buffer":0,
			"byteLength":17952,
			"byteOffset":2012864,
			"target":34962
		},
		{
			"buffer":0,
			"byteLength":17952,
			"byteOffset":2030816,
			"target":34962
		},
		{
			"buffer":0,
			"byteLength":11968,
			"byteOffset":2048768,
			"target":34962
		},
		{
			"buffer":0,
			"byteLength":14976,
			"byteOffset":2060736,
			"target":34963
		}
	],
	"buffers":[
		{
			"byteLength":2075712,
			"uri":"backpack.bin"
		}
	]
}
